<svg width="150" height="150" viewBox="0 0 150 150" fill="none" xmlns="http://www.w3.org/2000/svg">
<path d="M75 12.5C66.7924 12.5 58.6651 14.1166 51.0823 17.2575C43.4994 20.3984 36.6095 25.0022 30.8058 30.8058C19.0848 42.5269 12.5 58.424 12.5 75C12.5 91.576 19.0848 107.473 30.8058 119.194C36.6095 124.998 43.4994 129.602 51.0823 132.742C58.6651 135.883 66.7924 137.5 75 137.5C91.576 137.5 107.473 130.915 119.194 119.194C130.915 107.473 137.5 91.576 137.5 75C137.5 66.7924 135.883 58.6651 132.742 51.0823C129.602 43.4994 124.998 36.6095 119.194 30.8058C113.391 25.0022 106.501 20.3984 98.9177 17.2575C91.3349 14.1166 83.2076 12.5 75 12.5ZM101.25 101.25L68.75 81.25V43.75H78.125V76.25L106.25 93.125L101.25 101.25Z" fill="#AF3333"/>
</svg>
