<svg width="150" height="150" viewBox="0 0 150 150" fill="none" xmlns="http://www.w3.org/2000/svg">
<path d="M18.75 75C18.75 82.3869 20.2049 89.7014 23.0318 96.5259C25.8586 103.351 30.0019 109.551 35.2252 114.775C40.4485 119.998 46.6495 124.141 53.4741 126.968C60.2986 129.795 67.6131 131.25 75 131.25C82.3869 131.25 89.7014 129.795 96.5259 126.968C103.351 124.141 109.551 119.998 114.775 114.775C119.998 109.551 124.141 103.351 126.968 96.5259C129.795 89.7014 131.25 82.3869 131.25 75C131.25 67.6131 129.795 60.2986 126.968 53.4741C124.141 46.6495 119.998 40.4485 114.775 35.2252C109.551 30.0019 103.351 25.8586 96.5259 23.0318C89.7014 20.2049 82.3869 18.75 75 18.75C67.6131 18.75 60.2986 20.2049 53.4741 23.0318C46.6495 25.8586 40.4485 30.0019 35.2252 35.2252C30.0019 40.4485 25.8586 46.6495 23.0318 53.4741C20.2049 60.2986 18.75 67.6131 18.75 75Z" stroke="#AF3333" stroke-width="2" stroke-linecap="round" stroke-linejoin="round"/>
<path d="M86.6687 60.9375C85.1312 57.9375 82.2437 56.1313 79.1687 56.25H70.8313C66.2313 56.25 62.5 60.4375 62.5 65.625C62.5 70.7938 66.2313 74.9937 70.8313 74.9937H79.1687C83.7687 74.9937 87.5 79.1875 87.5 84.3687C87.5 89.5437 83.7687 93.7375 79.1687 93.7375H70.8313C67.7563 93.8563 64.8688 92.05 63.3313 89.05M75 43.75V56.25M75 93.75V106.25M37.5 37.5L46.875 46.875M103.125 103.125L112.5 112.5" stroke="#AF3333" stroke-width="2" stroke-linecap="round" stroke-linejoin="round"/>
</svg>
