<svg width="150" height="150" viewBox="0 0 150 150" fill="none" xmlns="http://www.w3.org/2000/svg">
<g clip-path="url(#clip0_4_56)">
<path d="M9.15 0L0 9.15L22.95 32.1C12.4249 45.0612 7.07703 61.4632 7.93948 78.1373C8.80193 94.8114 15.8135 110.574 27.6197 122.38C39.4258 134.186 55.1886 141.198 71.8627 142.061C88.5368 142.923 104.939 137.575 117.9 127.05L140.85 150L150 140.85L9.15 0ZM37.5 82.5V67.5H58.35L73.35 82.5H37.5ZM75 7.5C63.8443 7.51833 52.867 10.3013 43.05 15.6L94.95 67.5H112.5V82.5H109.95L134.4 106.95C139.923 96.671 142.688 85.1356 142.423 73.4696C142.158 61.8035 138.874 50.4053 132.89 40.3873C126.907 30.3692 118.428 22.0734 108.282 16.3095C98.1361 10.5455 86.669 7.51031 75 7.5Z" fill="#AF3333"/>
</g>
<defs>
<clipPath id="clip0_4_56">
<rect width="150" height="150" fill="white"/>
</clipPath>
</defs>
</svg>
